<?xml version="1.0" encoding="UTF-8" standalone="no"?>
<svg width="148px" height="28px" viewBox="0 0 148 28" version="1.1" xmlns="http://www.w3.org/2000/svg" xmlns:xlink="http://www.w3.org/1999/xlink" xmlns:sketch="http://www.bohemiancoding.com/sketch/ns">
    <!-- Generator: Sketch 3.2.2 (9983) - http://www.bohemiancoding.com/sketch -->
    <title>FastBill-Logo</title>
    <desc>Created with Sketch.</desc>
    <defs></defs>
    <g id="Page-1" stroke="none" stroke-width="1" fill="none" fill-rule="evenodd" sketch:type="MSPage">
        <g id="support" sketch:type="MSArtboardGroup" transform="translate(-129.000000, -61.000000)">
            <g id="Nav" sketch:type="MSLayerGroup" transform="translate(129.000000, 56.000000)">
                <g id="FastBill-Logo" transform="translate(0.000000, 5.000000)" sketch:type="MSShapeGroup">
                    <path d="M147.094366,14.5515179 C147.971518,7.43034127 143.135038,1.83155363 135.815543,1.83155363 L130.363706,1.83155363 C130.006098,1.83155363 129.651189,1.97549445 129.367802,2.20912974 C129.083065,2.44155656 128.869849,2.76354358 128.794279,3.11909889 C128.64179,3.83034378 129.097909,4.4083897 129.813125,4.4083897 L135.264961,4.4083897 C141.585852,4.4083897 145.635595,9.52540526 144.291529,15.8147597 L143.902883,17.6313412 L143.921775,17.5965644 C143.80842,18.2801491 144.259141,18.826238 144.955465,18.826238 C145.603208,18.826238 146.241505,18.3535965 146.470914,17.7383569 L146.557279,17.3308379 L146.881151,15.8147597 C146.972914,15.3885767 147.043086,14.9681675 147.094366,14.5515179" id="Fill-1" fill="white"></path>
                    <path d="M134.71438,6.98374876 L124.23174,6.98374876 C123.517873,6.98374876 122.814803,7.5601834 122.663663,8.27129402 C122.512522,8.97501961 122.957846,9.54742606 123.659567,9.5592421 L134.163798,9.5592421 C137.630572,9.5592421 139.851791,12.3656853 139.114983,15.8147597 L137.926105,21.3768908 C137.774965,22.0881357 138.231084,22.6645703 138.9463,22.6645703 C139.660167,22.6645703 140.363238,22.0881357 140.515727,21.3768908 L141.703256,15.8147597 C142.743693,10.9454781 139.607538,6.98374876 134.71438,6.98374876" id="Fill-2" fill="white"></path>
                    <path d="M131.813031,22.9105587 C131.694278,23.4663153 131.122105,23.9362713 130.563427,23.9362713 L116.963525,23.9362713 C116.404847,23.9362713 116.035093,23.4663153 116.153846,22.9105587 L117.612617,16.0778008 C117.73137,15.5220442 118.303543,15.0531624 118.860872,15.0531624 L132.462124,15.0531624 C133.019452,15.0531624 133.390555,15.5220442 133.271802,16.0778008 L131.813031,22.9105587 L131.813031,22.9105587 Z M133.614566,12.1346012 L118.955334,12.1346012 C117.939188,12.1346012 116.92574,12.5486996 116.113362,13.2156343 C115.300985,13.8829719 114.688328,14.8019373 114.472414,15.8147597 L112.900288,23.1735998 C112.468459,25.1973648 113.777439,26.8537584 115.811082,26.8537584 L130.470314,26.8537584 C131.48781,26.8537584 132.499909,26.43966 133.312286,25.7721881 C134.126013,25.1053877 134.73867,24.1848109 134.954584,23.1735998 L136.52671,15.8147597 C136.958539,13.7909948 135.648209,12.1346012 133.614566,12.1346012 L133.614566,12.1346012 Z" id="Fill-3" fill="white"></path>
                    <path d="M5.81272986,25.8493952 C5.67346513,26.5073337 5.22085477,26.8884009 4.66379586,26.8884009 L1.70455537,26.8884009 C1.251945,26.8884009 0.93859937,26.7844734 0.93859937,26.2996131 C0.93859937,25.9878308 1.00823173,25.7105568 1.04304791,25.5029705 L5.77791368,3.5051342 C5.91731335,2.84692721 6.26547517,2.39670933 6.96166386,2.39670933 L19.3559546,2.39670933 C19.8783323,2.39670933 20.2264941,2.63920664 20.2264941,3.05491632 C20.2264941,3.43598353 20.0870945,4.19811794 19.7042514,5.79153744 C19.5648517,6.34595129 19.2166899,6.5884486 18.5553174,6.5884486 L9.95585548,6.5884486 L8.52839203,12.9625294 L15.8396552,12.9625294 C16.361898,12.9625294 16.744876,13.0663226 16.744876,13.5859597 C16.744876,13.8977419 16.5359789,15.0408093 16.2226332,16.3573575 C16.0833685,16.9464138 15.7352067,17.1541344 15.0736992,17.1541344 L7.69280367,17.1541344 L5.81272986,25.8493952" id="Fill-4" fill="#000000"></path>
                    <path d="M30.531949,13.6553789 C30.0097062,13.3782391 28.9305396,13.2048925 28.0600001,13.2048925 C26.4584557,13.2048925 25.4837376,13.6207364 24.6829654,14.3828708 C23.3599505,15.6991505 22.5939945,18.5398333 22.5939945,20.6530242 C22.5939945,22.6275109 23.3947667,23.3550029 25.1355758,23.3550029 C26.145245,23.3550029 27.1200981,23.2165672 28.0253188,22.6621534 C28.2342159,22.5237178 28.4429781,22.3850136 28.5474266,22.2119355 C28.6518752,22.0039464 28.7911399,21.7615834 28.8259561,21.519086 L30.531949,13.6553789 L30.531949,13.6553789 Z M31.4023535,26.8884009 L29.0348532,26.8884009 C28.2688972,26.8884009 28.0948162,26.6113954 28.0948162,26.1955514 C28.0948162,26.0571158 28.1296324,25.7451992 28.1644486,25.6067636 C26.8414337,26.8537584 25.1355758,27.2694681 22.9421563,27.2694681 C19.6695702,27.2694681 17.7197291,25.5374787 17.7197291,21.8308683 C17.7197291,18.4360402 18.868663,13.5166747 21.7584061,11.1611208 C23.464399,9.77542187 25.3791541,9.35971219 27.9555515,9.35971219 C29.4178312,9.35971219 30.914927,9.7407794 31.5066671,10.3298357 C31.680748,9.84457255 31.8896451,9.46350534 32.655736,9.46350534 L34.9187879,9.46350534 C35.510528,9.46350534 35.8240086,9.80993007 35.8240086,10.2602822 C35.8240086,10.5029138 35.7542413,10.9531317 35.6499277,11.4382606 L32.5861037,25.7451992 C32.4118878,26.6113954 32.2031257,26.8884009 31.4023535,26.8884009 L31.4023535,26.8884009 Z" id="Fill-5" fill="#000000"></path>
                    <path d="M50.1333243,20.8953873 C50.1333243,22.9394275 49.5413143,24.5674894 48.357699,25.6760486 C47.0695003,26.8191159 45.1197941,27.3041105 42.4389482,27.3041105 C40.4544258,27.3041105 37.7040824,27.027105 36.3812024,26.368898 C36.0677219,26.2303281 35.8588248,25.9878308 35.8588248,25.6760486 C35.8588248,25.1564115 36.2071215,24.0479866 36.5551484,23.2165672 C36.7292293,22.8007233 37.0077588,22.5930027 37.5300015,22.5930027 C37.7388986,22.5930027 38.2611413,22.6967959 38.4700384,22.7660808 C39.8278695,23.2165672 41.3596465,23.4242878 42.8916935,23.4242878 C44.1449411,23.4242878 44.8064485,23.2512097 45.1197941,22.904785 C45.467956,22.5583602 45.5027721,22.246578 45.5027721,21.8655108 C45.5027721,21.241812 45.2242427,20.8953873 43.7619631,20.4451694 L41.7426245,19.7868281 C39.4797077,19.0939786 38.017428,17.9162688 38.017428,15.6298656 C38.017428,13.6900214 38.6093031,11.8886127 40.2803449,10.6413494 C41.5685436,9.67149445 43.4138012,9.1866341 46.0598311,9.1866341 C47.4524783,9.1866341 49.2281036,9.29042725 50.5509835,9.67149445 C51.0035939,9.80993007 51.212491,10.0872041 51.212491,10.4336289 C51.212491,10.7107687 50.9687777,12.1657525 50.6903832,12.9971719 C50.5509835,13.3435966 50.1681405,13.5859597 49.7851625,13.5859597 C49.5413143,13.5859597 49.0888389,13.5166747 48.8799418,13.4820322 C47.4176621,13.17025 46.3035443,13.0663226 45.3286912,13.0663226 C44.2842058,13.0663226 43.6226983,13.2048925 43.2049042,13.4473898 C42.8219262,13.6900214 42.6478452,14.1402392 42.6478452,14.6943845 C42.6478452,15.2834409 43.0308232,15.6298656 44.4582867,16.1148602 L46.5124414,16.8077097 C48.914758,17.6043523 50.1333243,18.8862581 50.1333243,20.8953873" id="Fill-6" fill="#000000"></path>
                    <path d="M58.6286076,20.4796776 C58.4197105,21.4844436 58.3499432,22.0732313 58.3499432,22.4890753 C58.3499432,23.1125055 58.8723209,23.4242878 59.5686445,23.4242878 C60.1603846,23.4242878 60.5781788,23.3550029 60.8568432,23.3550029 C61.2745025,23.3550029 61.5182157,23.5976344 61.5530319,24.0824948 C61.587983,24.705925 61.587983,25.364132 61.587983,25.8839034 C61.587983,26.5073337 61.1004215,26.8884009 60.4738652,27.027105 C59.6729581,27.2001831 58.5240241,27.3041105 57.5144898,27.3041105 C55.4603351,27.3041105 53.4063153,26.6460378 53.4063153,24.1171373 C53.4063153,23.3550029 53.5106289,22.5583602 53.719526,21.6575217 L55.4951512,13.4820322 L53.9980554,13.4820322 C53.4758127,13.4820322 53.2322344,13.2396692 53.2322344,12.8584677 C53.2322344,12.5468197 53.3017318,12.0616908 53.6498936,10.5720645 C53.7892933,10.0179192 54.1374551,9.63685198 54.7640114,9.63685198 L56.400372,9.63685198 C56.400372,9.60234378 56.7135826,8.1818681 57.3055927,5.89559913 C57.4796736,5.27203462 57.7930192,4.85632494 58.3847594,4.85632494 L61.1004215,4.85632494 C61.5182157,4.85632494 61.7620639,5.02940303 61.7620639,5.51453193 C61.7620639,5.72225249 61.6922966,6.13796217 61.6574804,6.34595129 L60.9263406,9.63685198 L63.3286572,9.63685198 C63.9553484,9.63685198 64.1294293,9.87921502 64.1294293,10.2602822 C64.1294293,10.4682713 64.059797,11.0571934 63.7116352,12.7198978 C63.5723704,13.3089541 63.1893924,13.4820322 62.5975174,13.4820322 L60.1603846,13.4820322 L58.6286076,20.4796776" id="Fill-7" fill="#000000"></path>
                    <path d="M73.9820039,12.2696799 C75.339835,12.2696799 76.4191366,12.1657525 77.045693,11.9578977 C78.5777399,11.4729031 79.169615,10.1218466 79.169615,8.77065587 C79.169615,7.35058301 78.4732914,6.79616917 77.637703,6.55367185 C77.0110117,6.38045949 75.8620777,6.34595129 74.7479599,6.34595129 L73.0072858,6.34595129 L71.7190871,12.2696799 L73.9820039,12.2696799 L73.9820039,12.2696799 Z M71.6842709,22.7660808 C73.2856803,22.7660808 74.8175923,22.6621534 75.5487321,22.4196561 C77.0806441,21.8655108 77.7768328,20.4105269 77.7768328,18.8171074 C77.7768328,17.6739058 77.3243574,16.9115028 76.488769,16.5653466 C75.7576292,16.2535644 74.7827761,16.1840109 73.424945,16.1840109 L70.8833638,16.1840109 L69.4560353,22.7660808 L71.6842709,22.7660808 L71.6842709,22.7660808 Z M64.825618,26.8537584 C64.1987918,26.8537584 63.9898947,26.5419761 63.9898947,26.1262665 C63.9898947,25.9531884 64.059662,25.6760486 64.0944782,25.5374787 L68.7945278,3.5051342 C68.9337925,2.88156968 69.2470032,2.39670933 70.0130942,2.39670933 L75.6183645,2.39670933 C76.6976661,2.39670933 78.5079726,2.46586 79.3785121,2.57005597 C82.6512332,2.98563138 84.1133779,4.75239752 84.1133779,7.38522549 C84.1133779,10.7107687 82.7207306,13.100965 79.4131933,14.0364461 C81.6066128,14.4867982 82.7555468,16.1148602 82.7555468,18.7129114 C82.7555468,21.9346615 81.2932671,24.8099867 77.8814163,26.0571158 C76.4191366,26.5766186 73.807923,26.8537584 70.5005207,26.8537584 L64.825618,26.8537584 L64.825618,26.8537584 Z" id="Fill-8" fill="#000000"></path>
                    <path d="M93.0958178,5.93024161 C92.6083912,6.38045949 91.9468838,6.62309107 91.1112954,6.62309107 C89.8230967,6.62309107 88.917876,6.13796217 88.917876,4.75239752 C88.917876,3.95548636 89.1267731,2.9509889 89.6839669,2.36206686 C90.2408909,1.80792156 90.9023983,1.5306475 91.8076191,1.5306475 C93.0958178,1.5306475 94.0358547,1.98099965 94.0358547,3.470626 C94.0358547,4.05954805 93.7571903,5.27203462 93.0958178,5.93024161 L93.0958178,5.93024161 Z M85.4014416,26.8884009 C84.91415,26.8884009 84.7052529,26.6806803 84.7052529,26.2303281 C84.7052529,26.0224733 84.7748853,25.7105568 84.8097015,25.4680595 L88.0126553,10.5720645 C88.15192,9.98327671 88.4305844,9.60234378 89.0571407,9.60234378 L91.9817,9.60234378 C92.5039427,9.60234378 92.6780236,9.87921502 92.6780236,10.2602822 C92.6780236,10.4682713 92.6083912,10.9184892 92.5387589,11.1611208 L89.3704863,25.9185459 C89.2312216,26.6113954 88.917876,26.8884009 88.3260009,26.8884009 L85.4014416,26.8884009 L85.4014416,26.8884009 Z" id="Fill-9" fill="#000000"></path>
                    <path d="M97.2388085,26.8884009 L94.3492003,26.8884009 C93.8617738,26.8884009 93.5832443,26.6460378 93.5832443,26.1955514 C93.5832443,25.9531884 93.6528767,25.5721212 93.6876929,25.433417 L98.7359043,1.9117147 C98.875169,1.28815018 99.1538334,0.941725452 99.7803897,0.941725452 L102.670133,0.941725452 C103.192241,0.941725452 103.436089,1.11507209 103.436089,1.5306475 C103.436089,1.70372559 103.366321,2.05015032 103.33164,2.22349696 L98.2486127,25.9185459 C98.109213,26.5766186 97.8308185,26.8884009 97.2388085,26.8884009" id="Fill-10" fill="#000000"></path>
                    <path d="M106.151211,26.8884009 L103.261603,26.8884009 C102.774177,26.8884009 102.495647,26.6460378 102.495647,26.1955514 C102.495647,25.9531884 102.565279,25.5721212 102.600096,25.433417 L107.648307,1.9117147 C107.787572,1.28815018 108.066236,0.941725452 108.692792,0.941725452 L111.582536,0.941725452 C112.104104,0.941725452 112.348357,1.11507209 112.348357,1.5306475 C112.348357,1.70372559 112.278184,2.05015032 112.244448,2.22349696 L107.161015,25.9185459 C107.021616,26.5766186 106.743221,26.8884009 106.151211,26.8884009" id="Fill-11" fill="#000000"></path>
                </g>
            </g>
        </g>
    </g>
</svg>