<?xml version="1.0" encoding="UTF-8" standalone="no"?>
<svg width="148px" height="28px" viewBox="0 0 148 28" version="1.1" xmlns="http://www.w3.org/2000/svg" xmlns:xlink="http://www.w3.org/1999/xlink" xmlns:sketch="http://www.bohemiancoding.com/sketch/ns">
    <!-- Generator: Sketch 3.2.2 (9983) - http://www.bohemiancoding.com/sketch -->
    <title>FastBill-Logo</title>
    <desc>Created with Sketch.</desc>
    <defs></defs>
    <g id="Page-1" stroke="none" stroke-width="1" fill="none" fill-rule="evenodd" sketch:type="MSPage">
        <g id="home" sketch:type="MSArtboardGroup" transform="translate(-129.000000, -61.000000)">
            <g id="Nav" sketch:type="MSLayerGroup" transform="translate(130.000000, 56.000000)">
                <g id="FastBill-Logo" transform="translate(0.000000, 6.000000)" sketch:type="MSShapeGroup">
                    <path d="M146.094366,13.5515179 C146.971518,6.43034127 142.135038,0.831553632 134.815543,0.831553632 L129.363706,0.831553632 C129.006098,0.831553632 128.651189,0.975494452 128.367802,1.20912974 C128.083065,1.44155656 127.869849,1.76354358 127.794279,2.11909889 C127.64179,2.83034378 128.097909,3.4083897 128.813125,3.4083897 L134.264961,3.4083897 C140.585852,3.4083897 144.635595,8.52540526 143.291529,14.8147597 L142.902883,16.6313412 L142.921775,16.5965644 C142.80842,17.2801491 143.259141,17.826238 143.955465,17.826238 C144.603208,17.826238 145.241505,17.3535965 145.470914,16.7383569 L145.557279,16.3308379 L145.881151,14.8147597 C145.972914,14.3885767 146.043086,13.9681675 146.094366,13.5515179" id="Fill-1" fill="#84BF41"></path>
                    <path d="M133.71438,5.98374876 L123.23174,5.98374876 C122.517873,5.98374876 121.814803,6.5601834 121.663663,7.27129402 C121.512522,7.97501961 121.957846,8.54742606 122.659567,8.5592421 L133.163798,8.5592421 C136.630572,8.5592421 138.851791,11.3656853 138.114983,14.8147597 L136.926105,20.3768908 C136.774965,21.0881357 137.231084,21.6645703 137.9463,21.6645703 C138.660167,21.6645703 139.363238,21.0881357 139.515727,20.3768908 L140.703256,14.8147597 C141.743693,9.94547812 138.607538,5.98374876 133.71438,5.98374876" id="Fill-2" fill="#84BF41"></path>
                    <path d="M130.813031,21.9105587 C130.694278,22.4663153 130.122105,22.9362713 129.563427,22.9362713 L115.963525,22.9362713 C115.404847,22.9362713 115.035093,22.4663153 115.153846,21.9105587 L116.612617,15.0778008 C116.73137,14.5220442 117.303543,14.0531624 117.860872,14.0531624 L131.462124,14.0531624 C132.019452,14.0531624 132.390555,14.5220442 132.271802,15.0778008 L130.813031,21.9105587 L130.813031,21.9105587 Z M132.614566,11.1346012 L117.955334,11.1346012 C116.939188,11.1346012 115.92574,11.5486996 115.113362,12.2156343 C114.300985,12.8829719 113.688328,13.8019373 113.472414,14.8147597 L111.900288,22.1735998 C111.468459,24.1973648 112.777439,25.8537584 114.811082,25.8537584 L129.470314,25.8537584 C130.48781,25.8537584 131.499909,25.43966 132.312286,24.7721881 C133.126013,24.1053877 133.73867,23.1848109 133.954584,22.1735998 L135.52671,14.8147597 C135.958539,12.7909948 134.648209,11.1346012 132.614566,11.1346012 L132.614566,11.1346012 Z" id="Fill-3" fill="#84BF41"></path>
                    <path d="M4.81272986,24.8493952 C4.67346513,25.5073337 4.22085477,25.8884009 3.66379586,25.8884009 L0.704555367,25.8884009 C0.251945005,25.8884009 -0.0614006305,25.7844734 -0.0614006305,25.2996131 C-0.0614006305,24.9878308 0.00823173288,24.7105568 0.0430479146,24.5029705 L4.77791368,2.5051342 C4.91731335,1.84692721 5.26547517,1.39670933 5.96166386,1.39670933 L18.3559546,1.39670933 C18.8783323,1.39670933 19.2264941,1.63920664 19.2264941,2.05491632 C19.2264941,2.43598353 19.0870945,3.19811794 18.7042514,4.79153744 C18.5648517,5.34595129 18.2166899,5.5884486 17.5553174,5.5884486 L8.95585548,5.5884486 L7.52839203,11.9625294 L14.8396552,11.9625294 C15.361898,11.9625294 15.744876,12.0663226 15.744876,12.5859597 C15.744876,12.8977419 15.5359789,14.0408093 15.2226332,15.3573575 C15.0833685,15.9464138 14.7352067,16.1541344 14.0736992,16.1541344 L6.69280367,16.1541344 L4.81272986,24.8493952" id="Fill-4" fill="#FFFFFF"></path>
                    <path d="M29.531949,12.6553789 C29.0097062,12.3782391 27.9305396,12.2048925 27.0600001,12.2048925 C25.4584557,12.2048925 24.4837376,12.6207364 23.6829654,13.3828708 C22.3599505,14.6991505 21.5939945,17.5398333 21.5939945,19.6530242 C21.5939945,21.6275109 22.3947667,22.3550029 24.1355758,22.3550029 C25.145245,22.3550029 26.1200981,22.2165672 27.0253188,21.6621534 C27.2342159,21.5237178 27.4429781,21.3850136 27.5474266,21.2119355 C27.6518752,21.0039464 27.7911399,20.7615834 27.8259561,20.519086 L29.531949,12.6553789 L29.531949,12.6553789 Z M30.4023535,25.8884009 L28.0348532,25.8884009 C27.2688972,25.8884009 27.0948162,25.6113954 27.0948162,25.1955514 C27.0948162,25.0571158 27.1296324,24.7451992 27.1644486,24.6067636 C25.8414337,25.8537584 24.1355758,26.2694681 21.9421563,26.2694681 C18.6695702,26.2694681 16.7197291,24.5374787 16.7197291,20.8308683 C16.7197291,17.4360402 17.868663,12.5166747 20.7584061,10.1611208 C22.464399,8.77542187 24.3791541,8.35971219 26.9555515,8.35971219 C28.4178312,8.35971219 29.914927,8.7407794 30.5066671,9.32983572 C30.680748,8.84457255 30.8896451,8.46350534 31.655736,8.46350534 L33.9187879,8.46350534 C34.510528,8.46350534 34.8240086,8.80993007 34.8240086,9.26028222 C34.8240086,9.50291381 34.7542413,9.95313169 34.6499277,10.4382606 L31.5861037,24.7451992 C31.4118878,25.6113954 31.2031257,25.8884009 30.4023535,25.8884009 L30.4023535,25.8884009 Z" id="Fill-5" fill="#FFFFFF"></path>
                    <path d="M49.1333243,19.8953873 C49.1333243,21.9394275 48.5413143,23.5674894 47.357699,24.6760486 C46.0695003,25.8191159 44.1197941,26.3041105 41.4389482,26.3041105 C39.4544258,26.3041105 36.7040824,26.027105 35.3812024,25.368898 C35.0677219,25.2303281 34.8588248,24.9878308 34.8588248,24.6760486 C34.8588248,24.1564115 35.2071215,23.0479866 35.5551484,22.2165672 C35.7292293,21.8007233 36.0077588,21.5930027 36.5300015,21.5930027 C36.7388986,21.5930027 37.2611413,21.6967959 37.4700384,21.7660808 C38.8278695,22.2165672 40.3596465,22.4242878 41.8916935,22.4242878 C43.1449411,22.4242878 43.8064485,22.2512097 44.1197941,21.904785 C44.467956,21.5583602 44.5027721,21.246578 44.5027721,20.8655108 C44.5027721,20.241812 44.2242427,19.8953873 42.7619631,19.4451694 L40.7426245,18.7868281 C38.4797077,18.0939786 37.017428,16.9162688 37.017428,14.6298656 C37.017428,12.6900214 37.6093031,10.8886127 39.2803449,9.64134943 C40.5685436,8.67149445 42.4138012,8.1866341 45.0598311,8.1866341 C46.4524783,8.1866341 48.2281036,8.29042725 49.5509835,8.67149445 C50.0035939,8.80993007 50.212491,9.08720413 50.212491,9.43362886 C50.212491,9.71076865 49.9687777,11.1657525 49.6903832,11.9971719 C49.5509835,12.3435966 49.1681405,12.5859597 48.7851625,12.5859597 C48.5413143,12.5859597 48.0888389,12.5166747 47.8799418,12.4820322 C46.4176621,12.17025 45.3035443,12.0663226 44.3286912,12.0663226 C43.2842058,12.0663226 42.6226983,12.2048925 42.2049042,12.4473898 C41.8219262,12.6900214 41.6478452,13.1402392 41.6478452,13.6943845 C41.6478452,14.2834409 42.0308232,14.6298656 43.4582867,15.1148602 L45.5124414,15.8077097 C47.914758,16.6043523 49.1333243,17.8862581 49.1333243,19.8953873" id="Fill-6" fill="#FFFFFF"></path>
                    <path d="M57.6286076,19.4796776 C57.4197105,20.4844436 57.3499432,21.0732313 57.3499432,21.4890753 C57.3499432,22.1125055 57.8723209,22.4242878 58.5686445,22.4242878 C59.1603846,22.4242878 59.5781788,22.3550029 59.8568432,22.3550029 C60.2745025,22.3550029 60.5182157,22.5976344 60.5530319,23.0824948 C60.587983,23.705925 60.587983,24.364132 60.587983,24.8839034 C60.587983,25.5073337 60.1004215,25.8884009 59.4738652,26.027105 C58.6729581,26.2001831 57.5240241,26.3041105 56.5144898,26.3041105 C54.4603351,26.3041105 52.4063153,25.6460378 52.4063153,23.1171373 C52.4063153,22.3550029 52.5106289,21.5583602 52.719526,20.6575217 L54.4951512,12.4820322 L52.9980554,12.4820322 C52.4758127,12.4820322 52.2322344,12.2396692 52.2322344,11.8584677 C52.2322344,11.5468197 52.3017318,11.0616908 52.6498936,9.57206448 C52.7892933,9.01791918 53.1374551,8.63685198 53.7640114,8.63685198 L55.400372,8.63685198 C55.400372,8.60234378 55.7135826,7.1818681 56.3055927,4.89559913 C56.4796736,4.27203462 56.7930192,3.85632494 57.3847594,3.85632494 L60.1004215,3.85632494 C60.5182157,3.85632494 60.7620639,4.02940303 60.7620639,4.51453193 C60.7620639,4.72225249 60.6922966,5.13796217 60.6574804,5.34595129 L59.9263406,8.63685198 L62.3286572,8.63685198 C62.9553484,8.63685198 63.1294293,8.87921502 63.1294293,9.26028222 C63.1294293,9.46827134 63.059797,10.0571934 62.7116352,11.7198978 C62.5723704,12.3089541 62.1893924,12.4820322 61.5975174,12.4820322 L59.1603846,12.4820322 L57.6286076,19.4796776" id="Fill-7" fill="#FFFFFF"></path>
                    <path d="M72.9820039,11.2696799 C74.339835,11.2696799 75.4191366,11.1657525 76.045693,10.9578977 C77.5777399,10.4729031 78.169615,9.1218466 78.169615,7.77065587 C78.169615,6.35058301 77.4732914,5.79616917 76.637703,5.55367185 C76.0110117,5.38045949 74.8620777,5.34595129 73.7479599,5.34595129 L72.0072858,5.34595129 L70.7190871,11.2696799 L72.9820039,11.2696799 L72.9820039,11.2696799 Z M70.6842709,21.7660808 C72.2856803,21.7660808 73.8175923,21.6621534 74.5487321,21.4196561 C76.0806441,20.8655108 76.7768328,19.4105269 76.7768328,17.8171074 C76.7768328,16.6739058 76.3243574,15.9115028 75.488769,15.5653466 C74.7576292,15.2535644 73.7827761,15.1840109 72.424945,15.1840109 L69.8833638,15.1840109 L68.4560353,21.7660808 L70.6842709,21.7660808 L70.6842709,21.7660808 Z M63.825618,25.8537584 C63.1987918,25.8537584 62.9898947,25.5419761 62.9898947,25.1262665 C62.9898947,24.9531884 63.059662,24.6760486 63.0944782,24.5374787 L67.7945278,2.5051342 C67.9337925,1.88156968 68.2470032,1.39670933 69.0130942,1.39670933 L74.6183645,1.39670933 C75.6976661,1.39670933 77.5079726,1.46586 78.3785121,1.57005597 C81.6512332,1.98563138 83.1133779,3.75239752 83.1133779,6.38522549 C83.1133779,9.71076865 81.7207306,12.100965 78.4131933,13.0364461 C80.6066128,13.4867982 81.7555468,15.1148602 81.7555468,17.7129114 C81.7555468,20.9346615 80.2932671,23.8099867 76.8814163,25.0571158 C75.4191366,25.5766186 72.807923,25.8537584 69.5005207,25.8537584 L63.825618,25.8537584 L63.825618,25.8537584 Z" id="Fill-8" fill="#FFFFFF"></path>
                    <path d="M92.0958178,4.93024161 C91.6083912,5.38045949 90.9468838,5.62309107 90.1112954,5.62309107 C88.8230967,5.62309107 87.917876,5.13796217 87.917876,3.75239752 C87.917876,2.95548636 88.1267731,1.9509889 88.6839669,1.36206686 C89.2408909,0.807921558 89.9023983,0.530647498 90.8076191,0.530647498 C92.0958178,0.530647498 93.0358547,0.980999651 93.0358547,2.470626 C93.0358547,3.05954805 92.7571903,4.27203462 92.0958178,4.93024161 L92.0958178,4.93024161 Z M84.4014416,25.8884009 C83.91415,25.8884009 83.7052529,25.6806803 83.7052529,25.2303281 C83.7052529,25.0224733 83.7748853,24.7105568 83.8097015,24.4680595 L87.0126553,9.57206448 C87.15192,8.98327671 87.4305844,8.60234378 88.0571407,8.60234378 L90.9817,8.60234378 C91.5039427,8.60234378 91.6780236,8.87921502 91.6780236,9.26028222 C91.6780236,9.46827134 91.6083912,9.91848922 91.5387589,10.1611208 L88.3704863,24.9185459 C88.2312216,25.6113954 87.917876,25.8884009 87.3260009,25.8884009 L84.4014416,25.8884009 L84.4014416,25.8884009 Z" id="Fill-9" fill="#FFFFFF"></path>
                    <path d="M96.2388085,25.8884009 L93.3492003,25.8884009 C92.8617738,25.8884009 92.5832443,25.6460378 92.5832443,25.1955514 C92.5832443,24.9531884 92.6528767,24.5721212 92.6876929,24.433417 L97.7359043,0.911714704 C97.875169,0.288150185 98.1538334,-0.0582745481 98.7803897,-0.0582745481 L101.670133,-0.0582745481 C102.192241,-0.0582745481 102.436089,0.115072092 102.436089,0.530647498 C102.436089,0.703725591 102.366321,1.05015032 102.33164,1.22349696 L97.2486127,24.9185459 C97.109213,25.5766186 96.8308185,25.8884009 96.2388085,25.8884009" id="Fill-10" fill="#FFFFFF"></path>
                    <path d="M105.151211,25.8884009 L102.261603,25.8884009 C101.774177,25.8884009 101.495647,25.6460378 101.495647,25.1955514 C101.495647,24.9531884 101.565279,24.5721212 101.600096,24.433417 L106.648307,0.911714704 C106.787572,0.288150185 107.066236,-0.0582745481 107.692792,-0.0582745481 L110.582536,-0.0582745481 C111.104104,-0.0582745481 111.348357,0.115072092 111.348357,0.530647498 C111.348357,0.703725591 111.278184,1.05015032 111.244448,1.22349696 L106.161015,24.9185459 C106.021616,25.5766186 105.743221,25.8884009 105.151211,25.8884009" id="Fill-11" fill="#FFFFFF"></path>
                </g>
            </g>
        </g>
    </g>
</svg>